<svg width="936" height="1024" viewBox="0 0 936 1024" fill="none" xmlns="http://www.w3.org/2000/svg">
<g id="kosovomap">
<g id="Vector 16" filter="url(#filter0_di_639_74)">
<path d="M257 396.5H256.5L255.5 397L255 398V399L254.5 401L254 403.5L252.5 406L251 407.5L250 408.5V410.5L251.5 414L252.5 419L253.5 421L254.5 423.5L255.5 424.5L257.5 425.5H259L260.5 428L262 429.5L263.5 430H266L268.5 431.5L271 436L273 439.5L276.5 443L278.5 444L278 446L273.5 451.5L271 455L268 458L264.5 460.5L262 462.5L260.5 466V470.5L261.5 474L262.5 476.5V480L260.5 484.5L258 491.5L260.5 492L262.5 493.5L263 496L264.5 497.5L265.5 500L266.5 501L270 503L271 503.5H273V504.5L274.5 505L276.5 506L277 507L282 508.5L283.5 510L284.5 511L285.5 512H287L287.5 514L287 515V516L287.5 517L291 520.5L291.5 522.5L292 525L292.5 526L294.5 527.5L297 530.5L296.5 531.5L295 533.5L295.5 535.5L297 537L299.5 538L301.5 541L304 542.5L305 546L305.5 547.5L306 550.5L305 551.5L302 553L300.5 557V558L303 559.5L305 561L307 563L308.5 565L309 565.5L310 566V566.5V567.5V568.5V569.5L311.5 570.5L312 574L311.5 576L311 577.5V578H310.5L309.5 578.5L309 579.5L309.5 580.5L310.5 582L311.5 583L312 584.5V586.5L311 587.5V588.5L311.5 589L312.5 590H313H314.5L315 590.5V591.5L316 592C317 591.667 319.1 591 319.5 591C319.9 591 321 590.667 321.5 590.5H323L324.5 590L326 589.5L326.5 590C326.667 590.167 327.1 590.5 327.5 590.5C328 590.5 328.5 591.5 329 591.5C329.4 591.5 329.833 592.167 330 592.5L330.5 593H331.5L333.5 591L335.5 590L337.5 588H339H341.5L342.5 589L344 590L346 593L345.5 595.5H346.5L348 596L349 596.5L350.5 597L352.5 597.5L359 600.5L359.5 601.5L361.5 605L363 606.5L367.5 607L368.5 609H373L375 610L379 612L382.5 615.5L384 617L384.5 619.5L388 621.5L389 623L389.5 623.5L391.5 625.5L392 629L394 631L396 633L397.5 634.5L399.5 637L400.5 641L402 649L404.5 653.5L405 654.5L405.5 657V657.5L405 658.5L408.5 663.5L410 664.5L409.5 665.5L409 666L409.5 667V668L411 671L412.5 674.5V676L411 680V682.5L412 684L412.5 685L409 690.5V691.5L409.5 692.5L414 701H415L415.5 701.5L421 708.5L422 717.5L422.5 718L423.5 719.5L425 725L428.5 734L430.5 736.5L431.5 742.5L430 745.5L429.5 751.5L424 755L420.5 756.5L418.5 760L415.5 761.5L419.5 772L421 774.5L421.5 777.5L420.5 778L418 778.5H414.5L412.5 780.5L411 781V781.5L410.5 785L412 791L411.5 792.5L411 795V797V799.5L413 807.5L414.5 811.5V815L415.5 816C415.9 816.4 417 816.5 417.5 816.5L418.5 817L421 816.5L423 815.5L424.5 814.5L427 816L429 816.5L430 816L431.5 815L433 814L434 812.5L435 811.5L435.5 809.5L436.5 806.5L438 805L442 799.5L444 797.5V796L445 792L447 790L451.5 787L455.5 785L467.5 777.5L469 775.5L470.5 772.5L480 763.5L481.5 762V761.5V760.5V760L479.5 757.5C479.167 757 478.3 755.6 477.5 754C476.7 752.4 477.167 749.333 477.5 748L478 747V745L477.5 742C477.333 741.667 477 740.9 477 740.5C477 740.1 476.333 739 476 738.5L474.5 736.5L474 733L473.5 729.5V727V724.5V721.5V719.5L473 716V714L474.5 711.5L475 709.5L478.5 705.5L480.5 701.5L482.5 698L483 697.5L484 696.5L485 695.5L485.5 694L486 693.5L487 692.5L488 692H488.5L490 691.5H494.5L498 690.5L500.5 689.5L503 688.5L504.5 687L506.5 686L508 685.5L510.5 686L511.5 686.5L514 686H516.5H518L519.5 685L520.5 684L524.5 679.5L526.5 676L531 672L536.5 669.5L545.5 668L556 660L558.5 659.5L561.5 658.5L564.5 656L566.5 654.5L569 652L572 647L580.5 642L582 640.5L584 638.5L586 638L588.5 638.5L591 639H593L594.5 639.5L596 640L598 642L600 644L601.5 647L602 653L603 657.5L611.5 666L615.5 673L616.5 676.5V679L617.5 681L619 682L620 682.5L622 682L625 681L627.5 681.5L630.5 683H633.5L637 682L642.5 675.5L647 661L650.5 651L657.5 638.5L658.5 637.5L660 635.5L661.5 633.5L664.5 629.5L667.5 627L671 626L678 625.5H681.5L683 624L684.5 623L685 622.5L685.5 621L686 620V618.5V616.5L686.5 616L687.5 615H689.5H693H696L702.5 618.5L705 620.5H707L715 619L737 617L736 606.5L737.5 603V598.5L731 596L728 588.5L728.5 580.5L733.5 571L742.5 564.5L746 548.5L743.5 542.5L745.5 536L754.5 527.5L771 519.5L777 512.5L781.5 499L783 484.5L791.5 470L801.5 465.5L804 463.5L803.5 463L802 460L799.5 456L798.5 451L799 445.5L798 441.5L796 439L788.5 434L785.5 433.5H783.5L782.5 434L781 435L772.5 444L770.5 448L764 450.5L756 444L744 423L734 416.5L721.5 413.5H706.5L695.5 410L692 406.5L682.5 406L681.5 405.5L681 406L669 405L667.5 401V393.5L668 393L673.5 385L677 376V372L677.5 365L675.5 361.5H675L668 365L666 364L660.5 353L652 345L637.5 341L630.5 341.5L626.5 342L623 342.5L622.5 341L622 340.5V339.5L622.5 337.5L623.5 333.5L625.5 328.5L627.5 324L628.5 320.5L629 318L624 304.5L622.5 303L620 301H617L615 301.5L612 304.5L610.5 307L608.5 310.5L607.5 313L606.5 314.5L606 315L605.5 314.5V314L605 312.5V311V309.5V307L604.5 304V301.5V298V296V293.5L605 290V284V280.5L604.5 274.5L604 269.5L603.5 267V266L603 264.5L602.5 263.5L602 262L601 261L599.5 260H598L597 260.5L596 261L592.5 265L592 266H591.5H591L590.5 265.5L587.5 256L586 252.5L584 249.5L580 245.5L578.5 245H577L575.5 245.5L573 247.5L564.5 252L562.5 252.5L560.5 251.5L553 247.5L551 247L550.5 247.5H550L548 248.5L546.5 250.5L539.5 253L530 249L524.5 245L516 243L512.5 241L510 238L508 235L507 233L506 225L509 222L512.5 221L514.5 221.5L524 225.5H525.5L526 224.5L527 222L526.5 220L522.5 214.5L513.5 198L509.5 191.5L501.5 186.5L493 186L490 186.5L487 187.5L477.5 196L470 198.5L460.5 204.5L456 208L446.5 212.5L431.5 216L431 218.5L433 223L445.5 234.5L446.5 236.5L447 239.5V241L446.5 242.5L444.5 246.5V248V250L446 254L447 256L448 257L449.5 256.5L452.5 255.5H453L454 256L454.5 262.5L453.5 266.5L455 274.5L458.5 282.5L459 291.5L458 295H457.5L439.5 297.5L440 303L439.5 303.5H438.5L438 303L435.5 301L432.5 299.5L430.5 299L428.5 300.5L418.5 303.5L412 306.5L409 310L405 313.5L401 315.5L400 316.5L398 317.5L395 320L392.5 323.5L391.5 327.5L392 332.5L393 335L394.5 339L404 350.5V353L400.5 359.5L398 363.5L397 364.5L394 365.5L393.5 366.5L384 367.5H383.5L354.5 373.5L350.5 374H348L346.5 373.5L343 372.5L340.5 372L338.5 372.5L337 374L335 376.5L332.5 377.5L329.5 379L327 381L326 382L324.5 385C324.833 386 325.5 388.1 325.5 388.5C325.5 388.9 326.167 390 326.5 390.5L327.5 392L327 393.5L325.5 394.5L324 396L321.5 400L316.5 407L313 408.5H309.5L305 407L303 406.5H301L298.5 406L291.5 406.5L289 406L286.5 406.5L280.5 404.5L277.5 403L274 402.5L268 400L267 399.5H266L265 399L264 398.5H263.5L262.5 398H262L261.5 397.5H260.5L259.5 397L258.5 396.5H257.5H257Z" fill="#BAA89B"/>
</g>
<g id="Group 8">
<g id="Group">
<g id="Vector" filter="url(#filter1_dd_639_74)">
<path d="M462.865 635.226C462.759 634.884 462.47 634.639 462.129 634.601L452.123 633.536L448.066 623.89C447.927 623.563 447.616 623.349 447.273 623.349C446.93 623.349 446.619 623.561 446.48 623.892L442.422 633.537L432.418 634.601C432.077 634.637 431.788 634.884 431.682 635.226C431.575 635.568 431.672 635.945 431.929 636.184L439.425 643.213L437.299 653.517C437.228 653.869 437.359 654.232 437.637 654.444C437.789 654.559 437.967 654.617 438.147 654.617C438.297 654.617 438.447 654.576 438.583 654.493L447.274 649.188L455.964 654.493C456.26 654.672 456.631 654.655 456.909 654.439C457.186 654.231 457.319 653.864 457.248 653.513L455.122 643.208L462.619 636.18C462.874 635.944 462.972 635.568 462.865 635.226ZM453.59 642.211C453.358 642.429 453.254 642.76 453.32 643.08L455.137 651.887L447.709 647.354C447.439 647.189 447.107 647.189 446.837 647.354L439.407 651.887L441.224 643.08C441.29 642.76 441.187 642.429 440.955 642.211L434.547 636.203L443.098 635.293C443.408 635.261 443.677 635.053 443.803 634.755L447.272 626.51L450.74 634.755C450.867 635.053 451.135 635.261 451.446 635.293L459.997 636.203L453.59 642.211Z" fill="#F3F3F3"/>
<path d="M431.498 635.169C431.37 635.58 431.486 636.033 431.797 636.325C431.797 636.325 431.797 636.325 431.797 636.325L439.215 643.28L437.111 653.478L437.111 653.479C437.025 653.9 437.182 654.339 437.521 654.597L437.521 654.597C437.706 654.738 437.925 654.81 438.147 654.81C438.332 654.81 438.517 654.759 438.683 654.657C438.683 654.657 438.684 654.656 438.684 654.656L447.274 649.413L455.863 654.657L455.864 654.657C456.227 654.877 456.684 654.856 457.025 654.592C457.364 654.337 457.522 653.894 457.436 653.474L457.436 653.474L455.333 643.275L462.75 636.321C462.75 636.321 462.75 636.321 462.75 636.32C463.061 636.032 463.177 635.579 463.049 635.169C462.921 634.757 462.571 634.457 462.15 634.41L462.149 634.41L452.256 633.357L448.243 623.816L448.243 623.815C448.076 623.422 447.698 623.157 447.273 623.157C446.848 623.157 446.47 623.42 446.303 623.818L442.289 633.358L432.398 634.41L432.398 634.41C431.975 634.455 431.625 634.759 431.498 635.169ZM431.498 635.169C431.498 635.169 431.498 635.169 431.498 635.169L431.682 635.226L431.498 635.169C431.498 635.169 431.498 635.169 431.498 635.169ZM453.458 642.07L453.458 642.07L459.559 636.35L451.426 635.485C451.426 635.485 451.425 635.485 451.425 635.485C451.04 635.445 450.715 635.188 450.563 634.831L450.563 634.83L447.272 627.006L443.981 634.83L443.98 634.831C443.829 635.188 443.503 635.445 443.118 635.485C443.118 635.485 443.118 635.485 443.118 635.485L434.985 636.35L441.086 642.07L441.086 642.07C441.369 642.335 441.491 642.735 441.413 643.119L441.412 643.119L439.685 651.492L446.737 647.19L453.458 642.07ZM453.458 642.07C453.176 642.335 453.053 642.735 453.132 643.119L453.132 643.119M453.458 642.07L453.132 643.119M453.132 643.119L454.859 651.492M453.132 643.119L454.859 651.492M454.859 651.492L447.809 647.19C447.809 647.19 447.809 647.19 447.809 647.19C447.478 646.987 447.068 646.987 446.737 647.19L454.859 651.492Z" stroke="#BAA89B" stroke-width="0.384709"/>
</g>
</g>
<g id="Group_2">
<g id="Vector_2" filter="url(#filter2_dd_639_74)">
<path d="M605.806 358.278C605.699 357.935 605.411 357.691 605.07 357.653L595.064 356.588L591.007 346.942C590.868 346.615 590.557 346.401 590.214 346.401C589.871 346.401 589.56 346.613 589.421 346.944L585.363 356.589L575.359 357.653C575.018 357.689 574.729 357.936 574.623 358.278C574.516 358.62 574.613 358.996 574.87 359.236L582.366 366.265L580.24 376.569C580.168 376.921 580.3 377.284 580.578 377.496C580.73 377.611 580.908 377.669 581.088 377.669C581.238 377.669 581.388 377.628 581.523 377.545L590.215 372.24L598.905 377.545C599.201 377.724 599.572 377.706 599.85 377.491C600.127 377.283 600.26 376.916 600.188 376.564L598.063 366.26L605.56 359.232C605.815 358.995 605.913 358.619 605.806 358.278ZM596.531 365.262C596.298 365.48 596.195 365.812 596.261 366.132L598.078 374.938L590.65 370.406C590.38 370.24 590.048 370.24 589.778 370.406L582.348 374.938L584.165 366.132C584.231 365.812 584.128 365.48 583.896 365.262L577.488 359.255L586.039 358.345C586.349 358.313 586.618 358.105 586.744 357.807L590.213 349.562L593.681 357.807C593.808 358.105 594.076 358.313 594.386 358.345L602.937 359.255L596.531 365.262Z" fill="#F3F3F3"/>
<path d="M574.439 358.221C574.311 358.632 574.427 359.085 574.738 359.377C574.738 359.377 574.738 359.377 574.738 359.377L582.155 366.332L580.052 376.53L580.052 376.53C579.966 376.951 580.122 377.39 580.462 377.649L580.462 377.649C580.647 377.79 580.866 377.861 581.088 377.861C581.273 377.861 581.458 377.811 581.624 377.708C581.624 377.708 581.625 377.708 581.625 377.708L590.215 372.465L598.804 377.709L598.805 377.709C599.168 377.928 599.625 377.908 599.966 377.644C600.305 377.389 600.463 376.946 600.377 376.526L600.377 376.526L598.273 366.326L605.691 359.373C605.691 359.372 605.691 359.372 605.691 359.372C606.002 359.084 606.118 358.631 605.99 358.22C605.862 357.809 605.512 357.509 605.091 357.462L605.09 357.462L595.197 356.409L591.184 346.867L591.184 346.867C591.017 346.473 590.639 346.208 590.214 346.208C589.789 346.208 589.411 346.471 589.244 346.87L585.23 356.41L575.339 357.462L575.339 357.462C574.916 357.507 574.566 357.811 574.439 358.221ZM574.439 358.221C574.439 358.221 574.439 358.221 574.439 358.221L574.623 358.278L574.439 358.221C574.439 358.221 574.439 358.221 574.439 358.221ZM596.399 365.122L596.399 365.122L602.5 359.402L594.367 358.536C594.367 358.536 594.366 358.536 594.366 358.536C593.981 358.497 593.656 358.24 593.504 357.882L593.504 357.882L590.213 350.058L586.921 357.882L586.921 357.882C586.77 358.24 586.444 358.497 586.059 358.536C586.059 358.536 586.059 358.536 586.059 358.536L577.926 359.402L584.027 365.122L584.027 365.122C584.309 365.387 584.432 365.787 584.353 366.17L584.353 366.171L582.626 374.544L589.678 370.242L596.399 365.122ZM596.399 365.122C596.117 365.387 595.994 365.787 596.073 366.17L596.073 366.171M596.399 365.122L596.073 366.171M596.073 366.171L597.8 374.544M596.073 366.171L597.8 374.544M597.8 374.544L590.75 370.242C590.75 370.242 590.75 370.242 590.75 370.242C590.419 370.039 590.009 370.038 589.678 370.241L597.8 374.544Z" stroke="#BAA89B" stroke-width="0.384709"/>
</g>
</g>
<g id="Group_3">
<g id="Vector_3" filter="url(#filter3_dd_639_74)">
<path d="M704.077 483.351C703.971 483.009 703.682 482.764 703.341 482.726L693.335 481.661L689.278 472.015C689.139 471.688 688.828 471.474 688.485 471.474C688.142 471.474 687.831 471.687 687.692 472.017L683.634 481.662L673.63 482.726C673.289 482.762 673 483.01 672.894 483.351C672.787 483.694 672.884 484.07 673.141 484.309L680.637 491.338L678.511 501.642C678.44 501.994 678.571 502.357 678.849 502.569C679.001 502.684 679.179 502.742 679.359 502.742C679.509 502.742 679.659 502.701 679.795 502.618L688.486 497.313L697.176 502.618C697.472 502.797 697.843 502.78 698.121 502.564C698.398 502.356 698.532 501.989 698.46 501.638L696.334 491.333L703.831 484.305C704.086 484.069 704.184 483.693 704.077 483.351ZM694.802 490.336C694.57 490.554 694.467 490.885 694.532 491.205L696.349 500.012L688.921 495.479C688.651 495.314 688.319 495.314 688.049 495.479L680.619 500.012L682.436 491.205C682.502 490.885 682.399 490.554 682.167 490.336L675.759 484.328L684.31 483.418C684.62 483.386 684.889 483.178 685.015 482.881L688.484 474.635L691.952 482.881C692.079 483.178 692.347 483.386 692.658 483.418L701.209 484.328L694.802 490.336Z" fill="#F3F3F3"/>
<path d="M672.71 483.294C672.582 483.705 672.698 484.158 673.009 484.45C673.009 484.45 673.009 484.45 673.01 484.45L680.427 491.405L678.323 501.603L678.323 501.604C678.237 502.025 678.394 502.464 678.733 502.722L678.733 502.722C678.918 502.863 679.138 502.935 679.359 502.935C679.544 502.935 679.729 502.884 679.895 502.782C679.896 502.782 679.896 502.782 679.896 502.781L688.486 497.538L697.075 502.782L697.076 502.783C697.439 503.002 697.896 502.981 698.237 502.717C698.576 502.462 698.734 502.019 698.648 501.599L698.648 501.599L696.545 491.4L703.962 484.446C703.962 484.446 703.962 484.446 703.962 484.446C704.273 484.157 704.389 483.704 704.261 483.294C704.133 482.882 703.783 482.582 703.362 482.535L703.361 482.535L693.468 481.482L689.455 471.941L689.455 471.94C689.288 471.547 688.91 471.282 688.485 471.282C688.06 471.282 687.682 471.545 687.515 471.943L683.501 481.483L673.61 482.535L673.61 482.535C673.187 482.58 672.837 482.884 672.71 483.294ZM672.71 483.294C672.71 483.294 672.71 483.294 672.71 483.294L672.894 483.351L672.71 483.294C672.71 483.294 672.71 483.294 672.71 483.294ZM694.67 490.195L694.67 490.195L700.771 484.475L692.638 483.61C692.638 483.61 692.638 483.61 692.637 483.61C692.252 483.57 691.927 483.313 691.775 482.956L691.775 482.955L688.484 475.131L685.193 482.955L685.192 482.956C685.041 483.313 684.715 483.57 684.33 483.61C684.33 483.61 684.33 483.61 684.33 483.61L676.197 484.475L682.298 490.195L682.298 490.195C682.581 490.46 682.704 490.86 682.625 491.244L682.625 491.244L680.897 499.617L687.949 495.315L694.67 490.195ZM694.67 490.195C694.388 490.46 694.265 490.86 694.344 491.244L694.344 491.244M694.67 490.195L694.344 491.244M694.344 491.244L696.071 499.617M694.344 491.244L696.071 499.617M696.071 499.617L689.021 495.315C689.021 495.315 689.021 495.315 689.021 495.315C688.69 495.112 688.28 495.112 687.949 495.315L696.071 499.617Z" stroke="#BAA89B" stroke-width="0.384709"/>
</g>
</g>
<g id="Group_4">
<g id="Vector_4" filter="url(#filter4_dd_639_74)">
<path d="M471.798 344.877C471.691 344.535 471.403 344.29 471.062 344.252L461.056 343.188L456.999 333.541C456.86 333.214 456.549 333 456.206 333C455.863 333 455.552 333.213 455.413 333.543L451.355 343.188L441.351 344.252C441.01 344.288 440.72 344.536 440.615 344.877C440.508 345.22 440.605 345.596 440.862 345.835L448.358 352.865L446.232 363.168C446.16 363.52 446.292 363.883 446.57 364.095C446.722 364.21 446.9 364.268 447.08 364.268C447.23 364.268 447.38 364.227 447.515 364.144L456.207 358.839L464.896 364.144C465.193 364.323 465.564 364.306 465.842 364.09C466.119 363.882 466.252 363.515 466.18 363.164L464.055 352.859L471.552 345.831C471.807 345.595 471.905 345.219 471.798 344.877ZM462.523 351.862C462.29 352.08 462.187 352.411 462.253 352.731L464.07 361.538L456.642 357.005C456.372 356.84 456.04 356.84 455.77 357.005L448.34 361.538L450.157 352.731C450.223 352.411 450.12 352.08 449.888 351.862L443.48 345.855L452.031 344.944C452.341 344.913 452.61 344.705 452.736 344.407L456.205 336.161L459.673 344.407C459.8 344.705 460.068 344.913 460.378 344.944L468.929 345.855L462.523 351.862Z" fill="#F3F3F3"/>
<path d="M440.431 344.82C440.303 345.231 440.419 345.684 440.73 345.976C440.73 345.976 440.73 345.976 440.73 345.976L448.147 352.931L446.044 363.129L446.044 363.13C445.958 363.551 446.114 363.99 446.454 364.248L446.454 364.248C446.639 364.389 446.858 364.461 447.08 364.461C447.265 364.461 447.45 364.41 447.616 364.308C447.616 364.308 447.616 364.308 447.617 364.307L456.207 359.064L464.796 364.308L464.797 364.309C465.16 364.528 465.616 364.507 465.958 364.243C466.297 363.988 466.455 363.545 466.369 363.125L466.369 363.125L464.265 352.926L471.683 345.972C471.683 345.972 471.683 345.972 471.683 345.972C471.993 345.683 472.109 345.23 471.982 344.82C471.853 344.408 471.504 344.108 471.083 344.061L471.082 344.061L461.189 343.008L457.176 333.467L457.176 333.466C457.009 333.073 456.631 332.808 456.206 332.808C455.781 332.808 455.403 333.071 455.236 333.469L451.222 343.009L441.331 344.061L441.331 344.061C440.908 344.106 440.558 344.41 440.431 344.82ZM440.431 344.82C440.431 344.82 440.431 344.82 440.431 344.82L440.615 344.877L440.431 344.82C440.431 344.82 440.431 344.82 440.431 344.82ZM462.391 351.721L462.391 351.721L468.492 346.001L460.359 345.136C460.359 345.136 460.358 345.136 460.358 345.136C459.973 345.096 459.648 344.839 459.496 344.482L459.496 344.481L456.205 336.657L452.913 344.481L452.913 344.482C452.761 344.839 452.436 345.096 452.051 345.136C452.051 345.136 452.051 345.136 452.051 345.136L443.918 346.001L450.019 351.721L450.019 351.721C450.301 351.986 450.424 352.386 450.345 352.77L450.345 352.77L448.618 361.143L455.67 356.841L462.391 351.721ZM462.391 351.721C462.109 351.986 461.986 352.386 462.065 352.77L462.065 352.77M462.391 351.721L462.065 352.77M462.065 352.77L463.792 361.143M462.065 352.77L463.792 361.143M463.792 361.143L456.742 356.841C456.742 356.841 456.742 356.841 456.742 356.841C456.411 356.638 456.001 356.638 455.67 356.841L463.792 361.143Z" stroke="#BAA89B" stroke-width="0.384709"/>
</g>
</g>
<g id="Group_5">
<g id="Vector_5" filter="url(#filter5_dd_639_74)">
<path d="M525.401 498.985C525.295 498.643 525.006 498.399 524.665 498.36L514.659 497.296L510.602 487.65C510.464 487.323 510.153 487.108 509.809 487.108C509.466 487.108 509.155 487.321 509.017 487.651L504.959 497.297L494.955 498.36C494.613 498.397 494.324 498.644 494.218 498.985C494.112 499.328 494.209 499.704 494.465 499.944L501.961 506.973L499.836 517.277C499.764 517.628 499.896 517.991 500.174 518.203C500.325 518.318 500.504 518.377 500.683 518.377C500.833 518.377 500.984 518.336 501.119 518.252L509.81 512.947L518.5 518.252C518.796 518.431 519.167 518.414 519.445 518.199C519.722 517.991 519.856 517.624 519.784 517.272L517.659 506.967L525.155 499.939C525.41 499.703 525.508 499.327 525.401 498.985ZM516.126 505.97C515.894 506.188 515.791 506.519 515.857 506.839L517.673 515.646L510.245 511.113C509.976 510.948 509.643 510.948 509.374 511.113L501.944 515.646L503.76 506.839C503.826 506.519 503.723 506.188 503.491 505.97L497.083 499.963L505.634 499.053C505.945 499.021 506.213 498.813 506.34 498.515L509.809 490.269L513.277 498.515C513.403 498.813 513.672 499.021 513.982 499.053L522.533 499.963L516.126 505.97Z" fill="#F3F3F3"/>
<path d="M494.035 498.928C493.907 499.339 494.022 499.793 494.334 500.084C494.334 500.084 494.334 500.084 494.334 500.084L501.751 507.039L499.647 517.238L499.647 517.238C499.561 517.659 499.718 518.098 500.057 518.356L500.057 518.356C500.242 518.497 500.462 518.569 500.683 518.569C500.868 518.569 501.054 518.518 501.22 518.416C501.22 518.416 501.22 518.416 501.22 518.416L509.81 513.173L518.4 518.416L518.401 518.417C518.763 518.636 519.22 518.615 519.562 518.352C519.901 518.096 520.058 517.654 519.972 517.233L519.972 517.233L517.869 507.034L525.286 500.08C525.286 500.08 525.286 500.08 525.287 500.08C525.597 499.792 525.713 499.338 525.585 498.928C525.457 498.517 525.108 498.216 524.686 498.169L524.685 498.169L514.793 497.116L510.779 487.575L510.779 487.575C510.612 487.181 510.234 486.916 509.809 486.916C509.385 486.916 509.006 487.179 508.839 487.577L504.825 497.117L494.934 498.169L494.934 498.169C494.512 498.214 494.162 498.518 494.035 498.928ZM494.035 498.928C494.035 498.928 494.035 498.928 494.035 498.928L494.218 498.985L494.035 498.928C494.035 498.928 494.035 498.928 494.035 498.928ZM515.994 505.83L515.995 505.83L522.095 500.11L513.962 499.244C513.962 499.244 513.962 499.244 513.962 499.244C513.577 499.204 513.251 498.947 513.1 498.59L513.099 498.589L509.809 490.765L506.517 498.589L506.517 498.59C506.365 498.947 506.039 499.204 505.655 499.244C505.654 499.244 505.654 499.244 505.654 499.244L497.521 500.11L503.623 505.83L503.623 505.83C503.905 506.095 504.028 506.495 503.949 506.878L503.949 506.878L502.222 515.251L509.273 510.949L515.994 505.83ZM515.994 505.83C515.712 506.095 515.589 506.495 515.668 506.878L515.668 506.878M515.994 505.83L515.668 506.878M515.668 506.878L517.396 515.251M515.668 506.878L517.396 515.251M517.396 515.251L510.346 510.949C510.346 510.949 510.346 510.949 510.346 510.949C510.015 510.746 509.605 510.746 509.273 510.949L517.396 515.251Z" stroke="#BAA89B" stroke-width="0.384709"/>
</g>
</g>
<g id="Group_6">
<path id="Vector_6" d="M380.226 478.884C380.119 478.542 379.831 478.297 379.489 478.259L369.484 477.194L365.427 467.548C365.288 467.221 364.977 467.007 364.634 467.007C364.291 467.007 363.98 467.22 363.841 467.55L359.783 477.195L349.779 478.259C349.438 478.295 349.148 478.543 349.043 478.884C348.936 479.227 349.033 479.603 349.29 479.842L356.785 486.871L354.66 497.175C354.588 497.527 354.72 497.89 354.998 498.102C355.15 498.217 355.328 498.275 355.507 498.275C355.657 498.275 355.808 498.234 355.943 498.151L364.635 492.846L373.324 498.151C373.621 498.33 373.991 498.313 374.27 498.097C374.547 497.889 374.68 497.522 374.608 497.171L372.483 486.866L379.98 479.838C380.234 479.602 380.332 479.226 380.226 478.884ZM370.95 485.869C370.718 486.087 370.615 486.418 370.681 486.738L372.498 495.545L365.07 491.012C364.8 490.847 364.467 490.847 364.198 491.012L356.768 495.545L358.585 486.738C358.651 486.418 358.548 486.087 358.315 485.869L351.908 479.861L360.459 478.951C360.769 478.919 361.038 478.711 361.164 478.414L364.633 470.168L368.101 478.414C368.227 478.711 368.496 478.919 368.806 478.951L377.357 479.861L370.95 485.869Z" fill="#F3F3F3"/>
<g id="Group_7">
<g id="Vector_7" filter="url(#filter6_dd_639_74)">
<path d="M380.226 478.884C380.119 478.542 379.831 478.297 379.49 478.259L369.484 477.194L365.427 467.548C365.288 467.221 364.977 467.007 364.634 467.007C364.291 467.007 363.98 467.219 363.841 467.55L359.783 477.195L349.779 478.259C349.438 478.295 349.148 478.542 349.043 478.884C348.936 479.226 349.033 479.603 349.29 479.842L356.786 486.871L354.66 497.175C354.588 497.527 354.72 497.89 354.998 498.102C355.15 498.217 355.328 498.275 355.508 498.275C355.657 498.275 355.808 498.234 355.943 498.151L364.635 492.846L373.324 498.151C373.621 498.33 373.992 498.312 374.27 498.097C374.547 497.889 374.68 497.522 374.608 497.171L372.483 486.866L379.98 479.838C380.235 479.602 380.332 479.226 380.226 478.884ZM370.951 485.869C370.718 486.087 370.615 486.418 370.681 486.738L372.498 495.545L365.07 491.012C364.8 490.846 364.468 490.846 364.198 491.012L356.768 495.545L358.585 486.738C358.651 486.418 358.548 486.087 358.316 485.869L351.908 479.861L360.459 478.951C360.769 478.919 361.038 478.711 361.164 478.413L364.633 470.168L368.101 478.413C368.228 478.711 368.496 478.919 368.806 478.951L377.357 479.861L370.951 485.869Z" fill="#F3F3F3"/>
<path d="M348.859 478.827C348.731 479.238 348.847 479.691 349.158 479.983C349.158 479.983 349.158 479.983 349.158 479.983L356.575 486.938L354.472 497.136L354.472 497.137C354.386 497.558 354.542 497.997 354.882 498.255L354.882 498.255C355.067 498.396 355.286 498.468 355.508 498.468C355.693 498.468 355.878 498.417 356.044 498.315C356.044 498.315 356.044 498.314 356.045 498.314L364.635 493.071L373.224 498.315L373.225 498.315C373.588 498.535 374.044 498.514 374.386 498.25C374.725 497.995 374.883 497.552 374.797 497.132L374.797 497.132L372.693 486.933L380.111 479.979C380.111 479.979 380.111 479.979 380.111 479.979C380.421 479.69 380.537 479.237 380.41 478.827C380.281 478.415 379.932 478.115 379.511 478.068L379.51 478.068L369.617 477.015L365.604 467.474L365.604 467.473C365.437 467.08 365.059 466.815 364.634 466.815C364.209 466.815 363.831 467.077 363.664 467.476L359.65 477.016L349.759 478.068L349.759 478.068C349.336 478.113 348.986 478.417 348.859 478.827ZM348.859 478.827C348.859 478.827 348.859 478.827 348.859 478.827L349.043 478.884L348.859 478.827C348.859 478.827 348.859 478.827 348.859 478.827ZM370.819 485.728L370.819 485.728C370.537 485.993 370.414 486.393 370.493 486.777L370.493 486.777L372.22 495.15L365.17 490.848C365.17 490.848 365.17 490.848 365.17 490.848C364.839 490.645 364.429 490.645 364.098 490.848L357.046 495.15L358.773 486.777L358.773 486.777C358.852 486.393 358.729 485.993 358.447 485.728L358.447 485.728L352.346 480.008L360.479 479.143C360.479 479.143 360.479 479.143 360.479 479.143C360.864 479.103 361.189 478.846 361.341 478.489L361.341 478.488L364.633 470.664L367.924 478.488L367.924 478.489C368.076 478.846 368.401 479.103 368.786 479.143C368.787 479.143 368.787 479.143 368.787 479.143L376.92 480.008L370.819 485.728Z" stroke="#BAA89B" stroke-width="0.384709"/>
</g>
</g>
</g>
<g id="Vector 5" filter="url(#filter7_dd_639_74)">
<path d="M460.674 635.633L571.23 568.629L679.552 501.626" stroke="#F3F3F3" stroke-width="2.23345"/>
</g>
<g id="Vector 11" filter="url(#filter8_d_639_74)">
<path d="M447.273 625.582L474.348 570.863L501.993 516.143" stroke="#F3F3F3" stroke-width="2.23345"/>
</g>
<g id="Vector 12" filter="url(#filter9_dd_639_74)">
<path d="M523.21 499.392L599.462 490.458L675.085 483.758" stroke="#F3F3F3" stroke-width="2.23345"/>
</g>
<g id="Vector 10" filter="url(#filter10_dd_639_74)">
<path d="M364.635 469.241L406.376 415.638L447.273 363.152" stroke="#F3F3F3" stroke-width="2.23345"/>
</g>
<g id="Vector 13" filter="url(#filter11_dd_639_74)">
<path d="M379.153 479.291L437.804 489.436L495.292 499.392" stroke="#F3F3F3" stroke-width="2.23345"/>
</g>
<g id="Vector 14" filter="url(#filter12_dd_639_74)">
<path d="M447.273 625.582L455.17 492.421L465.141 363.152" stroke="#F3F3F3" stroke-width="2.23345"/>
</g>
<g id="Vector 15" filter="url(#filter13_dd_639_74)">
<path d="M675.085 483.758L572.426 414.909L470.724 345.284" stroke="#F3F3F3" stroke-width="2.23345"/>
</g>
<g id="Vector 8" filter="url(#filter14_d_639_74)">
<path d="M470.724 345.284L524.047 352.908L576.813 358.685" stroke="#F3F3F3" stroke-width="2.23345"/>
</g>
<g id="Vector 6" filter="url(#filter15_dd_639_74)">
<path d="M599.148 376.552L645.332 425.31L688.486 472.591" stroke="#F3F3F3" stroke-width="2.23345"/>
</g>
</g>
</g>
<defs>
<filter id="filter0_di_639_74" x="0" y="-47" width="1054" height="1131" filterUnits="userSpaceOnUse" color-interpolation-filters="sRGB">
<feFlood flood-opacity="0" result="BackgroundImageFix"/>
<feColorMatrix in="SourceAlpha" type="matrix" values="0 0 0 0 0 0 0 0 0 0 0 0 0 0 0 0 0 0 127 0" result="hardAlpha"/>
<feOffset dy="17"/>
<feGaussianBlur stdDeviation="125"/>
<feComposite in2="hardAlpha" operator="out"/>
<feColorMatrix type="matrix" values="0 0 0 0 0.945098 0 0 0 0 0.631373 0 0 0 0 0.513726 0 0 0 1 0"/>
<feBlend mode="normal" in2="BackgroundImageFix" result="effect1_dropShadow_639_74"/>
<feBlend mode="normal" in="SourceGraphic" in2="effect1_dropShadow_639_74" result="shape"/>
<feColorMatrix in="SourceAlpha" type="matrix" values="0 0 0 0 0 0 0 0 0 0 0 0 0 0 0 0 0 0 127 0" result="hardAlpha"/>
<feOffset dy="4"/>
<feGaussianBlur stdDeviation="2"/>
<feComposite in2="hardAlpha" operator="arithmetic" k2="-1" k3="1"/>
<feColorMatrix type="matrix" values="0 0 0 0 0 0 0 0 0 0 0 0 0 0 0 0 0 0 0.25 0"/>
<feBlend mode="normal" in2="shape" result="effect2_innerShadow_639_74"/>
</filter>
<filter id="filter1_dd_639_74" x="417.854" y="614.03" width="58.839" height="49.9054" filterUnits="userSpaceOnUse" color-interpolation-filters="sRGB">
<feFlood flood-opacity="0" result="BackgroundImageFix"/>
<feColorMatrix in="SourceAlpha" type="matrix" values="0 0 0 0 0 0 0 0 0 0 0 0 0 0 0 0 0 0 127 0" result="hardAlpha"/>
<feOffset dx="4.46691"/>
<feGaussianBlur stdDeviation="4.46691"/>
<feComposite in2="hardAlpha" operator="out"/>
<feColorMatrix type="matrix" values="0 0 0 0 0.188235 0 0 0 0 0.772549 0 0 0 0 1 0 0 0 0.25 0"/>
<feBlend mode="normal" in2="BackgroundImageFix" result="effect1_dropShadow_639_74"/>
<feColorMatrix in="SourceAlpha" type="matrix" values="0 0 0 0 0 0 0 0 0 0 0 0 0 0 0 0 0 0 127 0" result="hardAlpha"/>
<feOffset dx="-4.46691"/>
<feGaussianBlur stdDeviation="4.46691"/>
<feComposite in2="hardAlpha" operator="out"/>
<feColorMatrix type="matrix" values="0 0 0 0 0.188235 0 0 0 0 0.772549 0 0 0 0 1 0 0 0 0.25 0"/>
<feBlend mode="normal" in2="effect1_dropShadow_639_74" result="effect2_dropShadow_639_74"/>
<feBlend mode="normal" in="SourceGraphic" in2="effect2_dropShadow_639_74" result="shape"/>
</filter>
<filter id="filter2_dd_639_74" x="560.795" y="337.082" width="58.839" height="49.9054" filterUnits="userSpaceOnUse" color-interpolation-filters="sRGB">
<feFlood flood-opacity="0" result="BackgroundImageFix"/>
<feColorMatrix in="SourceAlpha" type="matrix" values="0 0 0 0 0 0 0 0 0 0 0 0 0 0 0 0 0 0 127 0" result="hardAlpha"/>
<feOffset dx="4.46691"/>
<feGaussianBlur stdDeviation="4.46691"/>
<feComposite in2="hardAlpha" operator="out"/>
<feColorMatrix type="matrix" values="0 0 0 0 0.188235 0 0 0 0 0.772549 0 0 0 0 1 0 0 0 0.25 0"/>
<feBlend mode="normal" in2="BackgroundImageFix" result="effect1_dropShadow_639_74"/>
<feColorMatrix in="SourceAlpha" type="matrix" values="0 0 0 0 0 0 0 0 0 0 0 0 0 0 0 0 0 0 127 0" result="hardAlpha"/>
<feOffset dx="-4.46691"/>
<feGaussianBlur stdDeviation="4.46691"/>
<feComposite in2="hardAlpha" operator="out"/>
<feColorMatrix type="matrix" values="0 0 0 0 0.188235 0 0 0 0 0.772549 0 0 0 0 1 0 0 0 0.25 0"/>
<feBlend mode="normal" in2="effect1_dropShadow_639_74" result="effect2_dropShadow_639_74"/>
<feBlend mode="normal" in="SourceGraphic" in2="effect2_dropShadow_639_74" result="shape"/>
</filter>
<filter id="filter3_dd_639_74" x="659.066" y="462.155" width="58.839" height="49.9054" filterUnits="userSpaceOnUse" color-interpolation-filters="sRGB">
<feFlood flood-opacity="0" result="BackgroundImageFix"/>
<feColorMatrix in="SourceAlpha" type="matrix" values="0 0 0 0 0 0 0 0 0 0 0 0 0 0 0 0 0 0 127 0" result="hardAlpha"/>
<feOffset dx="4.46691"/>
<feGaussianBlur stdDeviation="4.46691"/>
<feComposite in2="hardAlpha" operator="out"/>
<feColorMatrix type="matrix" values="0 0 0 0 0.188235 0 0 0 0 0.772549 0 0 0 0 1 0 0 0 0.25 0"/>
<feBlend mode="normal" in2="BackgroundImageFix" result="effect1_dropShadow_639_74"/>
<feColorMatrix in="SourceAlpha" type="matrix" values="0 0 0 0 0 0 0 0 0 0 0 0 0 0 0 0 0 0 127 0" result="hardAlpha"/>
<feOffset dx="-4.46691"/>
<feGaussianBlur stdDeviation="4.46691"/>
<feComposite in2="hardAlpha" operator="out"/>
<feColorMatrix type="matrix" values="0 0 0 0 0.188235 0 0 0 0 0.772549 0 0 0 0 1 0 0 0 0.25 0"/>
<feBlend mode="normal" in2="effect1_dropShadow_639_74" result="effect2_dropShadow_639_74"/>
<feBlend mode="normal" in="SourceGraphic" in2="effect2_dropShadow_639_74" result="shape"/>
</filter>
<filter id="filter4_dd_639_74" x="426.787" y="323.681" width="58.839" height="49.9054" filterUnits="userSpaceOnUse" color-interpolation-filters="sRGB">
<feFlood flood-opacity="0" result="BackgroundImageFix"/>
<feColorMatrix in="SourceAlpha" type="matrix" values="0 0 0 0 0 0 0 0 0 0 0 0 0 0 0 0 0 0 127 0" result="hardAlpha"/>
<feOffset dx="4.46691"/>
<feGaussianBlur stdDeviation="4.46691"/>
<feComposite in2="hardAlpha" operator="out"/>
<feColorMatrix type="matrix" values="0 0 0 0 0.188235 0 0 0 0 0.772549 0 0 0 0 1 0 0 0 0.25 0"/>
<feBlend mode="normal" in2="BackgroundImageFix" result="effect1_dropShadow_639_74"/>
<feColorMatrix in="SourceAlpha" type="matrix" values="0 0 0 0 0 0 0 0 0 0 0 0 0 0 0 0 0 0 127 0" result="hardAlpha"/>
<feOffset dx="-4.46691"/>
<feGaussianBlur stdDeviation="4.46691"/>
<feComposite in2="hardAlpha" operator="out"/>
<feColorMatrix type="matrix" values="0 0 0 0 0.188235 0 0 0 0 0.772549 0 0 0 0 1 0 0 0 0.25 0"/>
<feBlend mode="normal" in2="effect1_dropShadow_639_74" result="effect2_dropShadow_639_74"/>
<feBlend mode="normal" in="SourceGraphic" in2="effect2_dropShadow_639_74" result="shape"/>
</filter>
<filter id="filter5_dd_639_74" x="480.39" y="477.79" width="58.839" height="49.9054" filterUnits="userSpaceOnUse" color-interpolation-filters="sRGB">
<feFlood flood-opacity="0" result="BackgroundImageFix"/>
<feColorMatrix in="SourceAlpha" type="matrix" values="0 0 0 0 0 0 0 0 0 0 0 0 0 0 0 0 0 0 127 0" result="hardAlpha"/>
<feOffset dx="4.46691"/>
<feGaussianBlur stdDeviation="4.46691"/>
<feComposite in2="hardAlpha" operator="out"/>
<feColorMatrix type="matrix" values="0 0 0 0 0.188235 0 0 0 0 0.772549 0 0 0 0 1 0 0 0 0.25 0"/>
<feBlend mode="normal" in2="BackgroundImageFix" result="effect1_dropShadow_639_74"/>
<feColorMatrix in="SourceAlpha" type="matrix" values="0 0 0 0 0 0 0 0 0 0 0 0 0 0 0 0 0 0 127 0" result="hardAlpha"/>
<feOffset dx="-4.46691"/>
<feGaussianBlur stdDeviation="4.46691"/>
<feComposite in2="hardAlpha" operator="out"/>
<feColorMatrix type="matrix" values="0 0 0 0 0.188235 0 0 0 0 0.772549 0 0 0 0 1 0 0 0 0.25 0"/>
<feBlend mode="normal" in2="effect1_dropShadow_639_74" result="effect2_dropShadow_639_74"/>
<feBlend mode="normal" in="SourceGraphic" in2="effect2_dropShadow_639_74" result="shape"/>
</filter>
<filter id="filter6_dd_639_74" x="335.215" y="457.688" width="58.839" height="49.9054" filterUnits="userSpaceOnUse" color-interpolation-filters="sRGB">
<feFlood flood-opacity="0" result="BackgroundImageFix"/>
<feColorMatrix in="SourceAlpha" type="matrix" values="0 0 0 0 0 0 0 0 0 0 0 0 0 0 0 0 0 0 127 0" result="hardAlpha"/>
<feOffset dx="4.46691"/>
<feGaussianBlur stdDeviation="4.46691"/>
<feComposite in2="hardAlpha" operator="out"/>
<feColorMatrix type="matrix" values="0 0 0 0 0.188235 0 0 0 0 0.772549 0 0 0 0 1 0 0 0 0.25 0"/>
<feBlend mode="normal" in2="BackgroundImageFix" result="effect1_dropShadow_639_74"/>
<feColorMatrix in="SourceAlpha" type="matrix" values="0 0 0 0 0 0 0 0 0 0 0 0 0 0 0 0 0 0 127 0" result="hardAlpha"/>
<feOffset dx="-4.46691"/>
<feGaussianBlur stdDeviation="4.46691"/>
<feComposite in2="hardAlpha" operator="out"/>
<feColorMatrix type="matrix" values="0 0 0 0 0.188235 0 0 0 0 0.772549 0 0 0 0 1 0 0 0 0.25 0"/>
<feBlend mode="normal" in2="effect1_dropShadow_639_74" result="effect2_dropShadow_639_74"/>
<feBlend mode="normal" in="SourceGraphic" in2="effect2_dropShadow_639_74" result="shape"/>
</filter>
<filter id="filter7_dd_639_74" x="446.694" y="489.509" width="249.08" height="158.246" filterUnits="userSpaceOnUse" color-interpolation-filters="sRGB">
<feFlood flood-opacity="0" result="BackgroundImageFix"/>
<feColorMatrix in="SourceAlpha" type="matrix" values="0 0 0 0 0 0 0 0 0 0 0 0 0 0 0 0 0 0 127 0" result="hardAlpha"/>
<feOffset dx="4.46691"/>
<feGaussianBlur stdDeviation="5.58363"/>
<feComposite in2="hardAlpha" operator="out"/>
<feColorMatrix type="matrix" values="0 0 0 0 0.188235 0 0 0 0 0.772549 0 0 0 0 1 0 0 0 1 0"/>
<feBlend mode="normal" in2="BackgroundImageFix" result="effect1_dropShadow_639_74"/>
<feColorMatrix in="SourceAlpha" type="matrix" values="0 0 0 0 0 0 0 0 0 0 0 0 0 0 0 0 0 0 127 0" result="hardAlpha"/>
<feOffset dx="-4.46691"/>
<feGaussianBlur stdDeviation="4.46691"/>
<feComposite in2="hardAlpha" operator="out"/>
<feColorMatrix type="matrix" values="0 0 0 0 0.188235 0 0 0 0 0.772549 0 0 0 0 1 0 0 0 1 0"/>
<feBlend mode="normal" in2="effect1_dropShadow_639_74" result="effect2_dropShadow_639_74"/>
<feBlend mode="normal" in="SourceGraphic" in2="effect2_dropShadow_639_74" result="shape"/>
</filter>
<filter id="filter8_d_639_74" x="435.105" y="504.472" width="79.0517" height="132.773" filterUnits="userSpaceOnUse" color-interpolation-filters="sRGB">
<feFlood flood-opacity="0" result="BackgroundImageFix"/>
<feColorMatrix in="SourceAlpha" type="matrix" values="0 0 0 0 0 0 0 0 0 0 0 0 0 0 0 0 0 0 127 0" result="hardAlpha"/>
<feOffset/>
<feGaussianBlur stdDeviation="5.58363"/>
<feComposite in2="hardAlpha" operator="out"/>
<feColorMatrix type="matrix" values="0 0 0 0 0.188235 0 0 0 0 0.772549 0 0 0 0 1 0 0 0 1 0"/>
<feBlend mode="normal" in2="BackgroundImageFix" result="effect1_dropShadow_639_74"/>
<feBlend mode="normal" in="SourceGraphic" in2="effect1_dropShadow_639_74" result="shape"/>
</filter>
<filter id="filter9_dd_639_74" x="509.68" y="471.478" width="181.138" height="46.8906" filterUnits="userSpaceOnUse" color-interpolation-filters="sRGB">
<feFlood flood-opacity="0" result="BackgroundImageFix"/>
<feColorMatrix in="SourceAlpha" type="matrix" values="0 0 0 0 0 0 0 0 0 0 0 0 0 0 0 0 0 0 127 0" result="hardAlpha"/>
<feOffset dx="4.46691"/>
<feGaussianBlur stdDeviation="5.58363"/>
<feComposite in2="hardAlpha" operator="out"/>
<feColorMatrix type="matrix" values="0 0 0 0 0.188235 0 0 0 0 0.772549 0 0 0 0 1 0 0 0 1 0"/>
<feBlend mode="normal" in2="BackgroundImageFix" result="effect1_dropShadow_639_74"/>
<feColorMatrix in="SourceAlpha" type="matrix" values="0 0 0 0 0 0 0 0 0 0 0 0 0 0 0 0 0 0 127 0" result="hardAlpha"/>
<feOffset dx="-4.46691" dy="8.93381"/>
<feGaussianBlur stdDeviation="4.46691"/>
<feComposite in2="hardAlpha" operator="out"/>
<feColorMatrix type="matrix" values="0 0 0 0 0.188235 0 0 0 0 0.772549 0 0 0 0 1 0 0 0 1 0"/>
<feBlend mode="normal" in2="effect1_dropShadow_639_74" result="effect2_dropShadow_639_74"/>
<feBlend mode="normal" in="SourceGraphic" in2="effect2_dropShadow_639_74" result="shape"/>
</filter>
<filter id="filter10_dd_639_74" x="350.353" y="351.298" width="113.435" height="129.796" filterUnits="userSpaceOnUse" color-interpolation-filters="sRGB">
<feFlood flood-opacity="0" result="BackgroundImageFix"/>
<feColorMatrix in="SourceAlpha" type="matrix" values="0 0 0 0 0 0 0 0 0 0 0 0 0 0 0 0 0 0 127 0" result="hardAlpha"/>
<feOffset dx="4.46691"/>
<feGaussianBlur stdDeviation="5.58363"/>
<feComposite in2="hardAlpha" operator="out"/>
<feColorMatrix type="matrix" values="0 0 0 0 0.188235 0 0 0 0 0.772549 0 0 0 0 1 0 0 0 1 0"/>
<feBlend mode="normal" in2="BackgroundImageFix" result="effect1_dropShadow_639_74"/>
<feColorMatrix in="SourceAlpha" type="matrix" values="0 0 0 0 0 0 0 0 0 0 0 0 0 0 0 0 0 0 127 0" result="hardAlpha"/>
<feOffset dx="-4.46691"/>
<feGaussianBlur stdDeviation="4.46691"/>
<feComposite in2="hardAlpha" operator="out"/>
<feColorMatrix type="matrix" values="0 0 0 0 0.188235 0 0 0 0 0.772549 0 0 0 0 1 0 0 0 1 0"/>
<feBlend mode="normal" in2="effect1_dropShadow_639_74" result="effect2_dropShadow_639_74"/>
<feBlend mode="normal" in="SourceGraphic" in2="effect2_dropShadow_639_74" result="shape"/>
</filter>
<filter id="filter11_dd_639_74" x="365.562" y="467.023" width="145.555" height="44.6363" filterUnits="userSpaceOnUse" color-interpolation-filters="sRGB">
<feFlood flood-opacity="0" result="BackgroundImageFix"/>
<feColorMatrix in="SourceAlpha" type="matrix" values="0 0 0 0 0 0 0 0 0 0 0 0 0 0 0 0 0 0 127 0" result="hardAlpha"/>
<feOffset dx="4.46691"/>
<feGaussianBlur stdDeviation="5.58363"/>
<feComposite in2="hardAlpha" operator="out"/>
<feColorMatrix type="matrix" values="0 0 0 0 0.188235 0 0 0 0 0.772549 0 0 0 0 1 0 0 0 1 0"/>
<feBlend mode="normal" in2="BackgroundImageFix" result="effect1_dropShadow_639_74"/>
<feColorMatrix in="SourceAlpha" type="matrix" values="0 0 0 0 0 0 0 0 0 0 0 0 0 0 0 0 0 0 127 0" result="hardAlpha"/>
<feOffset dx="-4.46691"/>
<feGaussianBlur stdDeviation="4.46691"/>
<feComposite in2="hardAlpha" operator="out"/>
<feColorMatrix type="matrix" values="0 0 0 0 0.188235 0 0 0 0 0.772549 0 0 0 0 1 0 0 0 1 0"/>
<feBlend mode="normal" in2="effect1_dropShadow_639_74" result="effect2_dropShadow_639_74"/>
<feBlend mode="normal" in="SourceGraphic" in2="effect2_dropShadow_639_74" result="shape"/>
</filter>
<filter id="filter12_dd_639_74" x="430.524" y="351.898" width="51.3642" height="284.917" filterUnits="userSpaceOnUse" color-interpolation-filters="sRGB">
<feFlood flood-opacity="0" result="BackgroundImageFix"/>
<feColorMatrix in="SourceAlpha" type="matrix" values="0 0 0 0 0 0 0 0 0 0 0 0 0 0 0 0 0 0 127 0" result="hardAlpha"/>
<feOffset dx="-4.46691"/>
<feGaussianBlur stdDeviation="5.58363"/>
<feComposite in2="hardAlpha" operator="out"/>
<feColorMatrix type="matrix" values="0 0 0 0 0.188235 0 0 0 0 0.772549 0 0 0 0 1 0 0 0 1 0"/>
<feBlend mode="normal" in2="BackgroundImageFix" result="effect1_dropShadow_639_74"/>
<feColorMatrix in="SourceAlpha" type="matrix" values="0 0 0 0 0 0 0 0 0 0 0 0 0 0 0 0 0 0 127 0" result="hardAlpha"/>
<feOffset dx="4.46691"/>
<feGaussianBlur stdDeviation="5.58363"/>
<feComposite in2="hardAlpha" operator="out"/>
<feColorMatrix type="matrix" values="0 0 0 0 0.188235 0 0 0 0 0.772549 0 0 0 0 1 0 0 0 1 0"/>
<feBlend mode="normal" in2="effect1_dropShadow_639_74" result="effect2_dropShadow_639_74"/>
<feBlend mode="normal" in="SourceGraphic" in2="effect2_dropShadow_639_74" result="shape"/>
</filter>
<filter id="filter13_dd_639_74" x="454.459" y="333.195" width="234.649" height="162.658" filterUnits="userSpaceOnUse" color-interpolation-filters="sRGB">
<feFlood flood-opacity="0" result="BackgroundImageFix"/>
<feColorMatrix in="SourceAlpha" type="matrix" values="0 0 0 0 0 0 0 0 0 0 0 0 0 0 0 0 0 0 127 0" result="hardAlpha"/>
<feOffset dx="-4.46691"/>
<feGaussianBlur stdDeviation="5.58363"/>
<feComposite in2="hardAlpha" operator="out"/>
<feColorMatrix type="matrix" values="0 0 0 0 0.188235 0 0 0 0 0.772549 0 0 0 0 1 0 0 0 1 0"/>
<feBlend mode="normal" in2="BackgroundImageFix" result="effect1_dropShadow_639_74"/>
<feColorMatrix in="SourceAlpha" type="matrix" values="0 0 0 0 0 0 0 0 0 0 0 0 0 0 0 0 0 0 127 0" result="hardAlpha"/>
<feOffset dx="4.46691"/>
<feGaussianBlur stdDeviation="4.46691"/>
<feComposite in2="hardAlpha" operator="out"/>
<feColorMatrix type="matrix" values="0 0 0 0 0.188235 0 0 0 0 0.772549 0 0 0 0 1 0 0 0 1 0"/>
<feBlend mode="normal" in2="effect1_dropShadow_639_74" result="effect2_dropShadow_639_74"/>
<feBlend mode="normal" in="SourceGraphic" in2="effect2_dropShadow_639_74" result="shape"/>
</filter>
<filter id="filter14_d_639_74" x="459.399" y="333.011" width="128.703" height="37.9508" filterUnits="userSpaceOnUse" color-interpolation-filters="sRGB">
<feFlood flood-opacity="0" result="BackgroundImageFix"/>
<feColorMatrix in="SourceAlpha" type="matrix" values="0 0 0 0 0 0 0 0 0 0 0 0 0 0 0 0 0 0 127 0" result="hardAlpha"/>
<feOffset/>
<feGaussianBlur stdDeviation="5.58363"/>
<feComposite in2="hardAlpha" operator="out"/>
<feColorMatrix type="matrix" values="0 0 0 0 0.188235 0 0 0 0 0.772549 0 0 0 0 1 0 0 0 1 0"/>
<feBlend mode="normal" in2="BackgroundImageFix" result="effect1_dropShadow_639_74"/>
<feBlend mode="normal" in="SourceGraphic" in2="effect1_dropShadow_639_74" result="shape"/>
</filter>
<filter id="filter15_dd_639_74" x="584.936" y="364.617" width="120.009" height="119.894" filterUnits="userSpaceOnUse" color-interpolation-filters="sRGB">
<feFlood flood-opacity="0" result="BackgroundImageFix"/>
<feColorMatrix in="SourceAlpha" type="matrix" values="0 0 0 0 0 0 0 0 0 0 0 0 0 0 0 0 0 0 127 0" result="hardAlpha"/>
<feOffset dx="4.46691"/>
<feGaussianBlur stdDeviation="5.58363"/>
<feComposite in2="hardAlpha" operator="out"/>
<feColorMatrix type="matrix" values="0 0 0 0 0.188235 0 0 0 0 0.772549 0 0 0 0 1 0 0 0 1 0"/>
<feBlend mode="normal" in2="BackgroundImageFix" result="effect1_dropShadow_639_74"/>
<feColorMatrix in="SourceAlpha" type="matrix" values="0 0 0 0 0 0 0 0 0 0 0 0 0 0 0 0 0 0 127 0" result="hardAlpha"/>
<feOffset dx="-4.46691"/>
<feGaussianBlur stdDeviation="4.46691"/>
<feComposite in2="hardAlpha" operator="out"/>
<feColorMatrix type="matrix" values="0 0 0 0 0.188235 0 0 0 0 0.772549 0 0 0 0 1 0 0 0 1 0"/>
<feBlend mode="normal" in2="effect1_dropShadow_639_74" result="effect2_dropShadow_639_74"/>
<feBlend mode="normal" in="SourceGraphic" in2="effect2_dropShadow_639_74" result="shape"/>
</filter>
</defs>
</svg>
